<svg xmlns="http://www.w3.org/2000/svg" xmlns:xlink="http://www.w3.org/1999/xlink" width="70" zoomAndPan="magnify" viewBox="0 0 52.5 48" height="64" preserveAspectRatio="xMidYMid meet" version="1.0"><defs><clipPath id="4ec1f18cd0"><path d="M 21 18 L 46.164062 18 L 46.164062 37 L 21 37 Z M 21 18 " clip-rule="nonzero"/></clipPath><clipPath id="83e5f643d4"><path d="M 5.753906 3.511719 L 47.632812 3.585938 L 47.5625 43.996094 L 5.683594 43.921875 Z M 5.753906 3.511719 " clip-rule="nonzero"/></clipPath><clipPath id="045a62a8f2"><path d="M 5.753906 3.511719 L 222.488281 3.890625 L 222.414062 45.769531 L 5.679688 45.390625 Z M 5.753906 3.511719 " clip-rule="nonzero"/></clipPath><clipPath id="963b10d490"><path d="M 35 25 L 42 25 L 42 34 L 35 34 Z M 35 25 " clip-rule="nonzero"/></clipPath><clipPath id="c875d4945b"><path d="M 5.753906 3.511719 L 47.632812 3.585938 L 47.5625 43.996094 L 5.683594 43.921875 Z M 5.753906 3.511719 " clip-rule="nonzero"/></clipPath><clipPath id="be19aeb2da"><path d="M 5.753906 3.511719 L 222.488281 3.890625 L 222.414062 45.769531 L 5.679688 45.390625 Z M 5.753906 3.511719 " clip-rule="nonzero"/></clipPath><clipPath id="1cef90d3de"><path d="M 12 4 L 29 4 L 29 30 L 12 30 Z M 12 4 " clip-rule="nonzero"/></clipPath><clipPath id="8a30c1b93a"><path d="M 5.753906 3.511719 L 47.632812 3.585938 L 47.5625 43.996094 L 5.683594 43.921875 Z M 5.753906 3.511719 " clip-rule="nonzero"/></clipPath><clipPath id="39c4c4a00d"><path d="M 5.753906 3.511719 L 222.488281 3.890625 L 222.414062 45.769531 L 5.679688 45.390625 Z M 5.753906 3.511719 " clip-rule="nonzero"/></clipPath><clipPath id="1f8c14dec3"><path d="M 16 8 L 25 8 L 25 15 L 16 15 Z M 16 8 " clip-rule="nonzero"/></clipPath><clipPath id="a7ff28b1b3"><path d="M 5.753906 3.511719 L 47.632812 3.585938 L 47.5625 43.996094 L 5.683594 43.921875 Z M 5.753906 3.511719 " clip-rule="nonzero"/></clipPath><clipPath id="064e00c2a2"><path d="M 5.753906 3.511719 L 222.488281 3.890625 L 222.414062 45.769531 L 5.679688 45.390625 Z M 5.753906 3.511719 " clip-rule="nonzero"/></clipPath><clipPath id="5815e28f42"><path d="M 5.753906 24 L 30 24 L 30 42.832031 L 5.753906 42.832031 Z M 5.753906 24 " clip-rule="nonzero"/></clipPath><clipPath id="03e9f8188f"><path d="M 5.753906 3.511719 L 47.632812 3.585938 L 47.5625 43.996094 L 5.683594 43.921875 Z M 5.753906 3.511719 " clip-rule="nonzero"/></clipPath><clipPath id="08d609b4fd"><path d="M 5.753906 3.511719 L 222.488281 3.890625 L 222.414062 45.769531 L 5.679688 45.390625 Z M 5.753906 3.511719 " clip-rule="nonzero"/></clipPath><clipPath id="68c93997a0"><path d="M 8 31 L 17 31 L 17 40 L 8 40 Z M 8 31 " clip-rule="nonzero"/></clipPath><clipPath id="8650254986"><path d="M 5.753906 3.511719 L 47.632812 3.585938 L 47.5625 43.996094 L 5.683594 43.921875 Z M 5.753906 3.511719 " clip-rule="nonzero"/></clipPath><clipPath id="031c12c79d"><path d="M 5.753906 3.511719 L 222.488281 3.890625 L 222.414062 45.769531 L 5.679688 45.390625 Z M 5.753906 3.511719 " clip-rule="nonzero"/></clipPath></defs><g clip-path="url(#4ec1f18cd0)"><g clip-path="url(#83e5f643d4)"><g clip-path="url(#045a62a8f2)"><path fill="#579232" d="M 29.953125 34.960938 C 29.953125 34.960938 28.414062 34.167969 29.859375 34.191406 C 29.859375 34.191406 41.382812 37.554688 42.628906 31.191406 C 42.628906 31.191406 44.632812 26.738281 34.058594 22.085938 C 30.128906 20.335938 23.5625 18.601562 22.105469 23.328125 C 22.105469 23.328125 22.019531 23.75 22 24.140625 C 21.980469 24.539062 22.046875 24.9375 22 24.789062 C 21.621094 23.539062 21.15625 19.5 25.851562 18.832031 C 33.851562 17.691406 44.859375 24.765625 45.984375 29.367188 C 45.984375 29.367188 47.277344 36.523438 36.460938 36.175781 C 36.460938 36.175781 32.632812 36.101562 29.953125 34.960938 Z M 29.953125 34.960938 " fill-opacity="1" fill-rule="nonzero"/></g></g></g><g clip-path="url(#963b10d490)"><g clip-path="url(#c875d4945b)"><g clip-path="url(#be19aeb2da)"><path fill="#579232" d="M 35.160156 33.726562 C 44.84375 32.410156 37.394531 25.101562 37.394531 25.101562 C 37.394531 25.101562 42.226562 27.925781 41.558594 30.910156 C 40.894531 33.898438 35.902344 33.714844 35.160156 33.726562 Z M 35.160156 33.726562 " fill-opacity="1" fill-rule="evenodd"/></g></g></g><g clip-path="url(#1cef90d3de)"><g clip-path="url(#8a30c1b93a)"><g clip-path="url(#39c4c4a00d)"><path fill="#e6671f" d="M 28.511719 15.984375 C 28.511719 15.984375 28.667969 17.714844 27.914062 16.476562 C 27.914062 16.476562 24.570312 4.914062 18.546875 7.265625 C 18.546875 7.265625 13.726562 7.957031 15.480469 19.40625 C 16.113281 23.671875 18.167969 30.164062 22.925781 28.867188 C 22.925781 28.867188 23.328125 28.714844 23.667969 28.519531 C 24.015625 28.324219 24.316406 28.054688 24.214844 28.171875 C 23.367188 29.164062 20.214844 31.722656 17.136719 28.105469 C 11.890625 21.9375 11.949219 8.820312 15.210938 5.402344 C 15.210938 5.402344 20.542969 0.46875 26.046875 9.824219 C 26.046875 9.824219 28.039062 13.105469 28.515625 15.984375 Z M 28.511719 15.984375 " fill-opacity="1" fill-rule="nonzero"/></g></g></g><g clip-path="url(#1f8c14dec3)"><g clip-path="url(#a7ff28b1b3)"><g clip-path="url(#064e00c2a2)"><path fill="#e6671f" d="M 24.683594 12.234375 C 18.386719 4.738281 16.230469 14.964844 16.230469 14.964844 C 16.230469 14.964844 16.015625 9.359375 18.886719 8.324219 C 21.757812 7.289062 24.277344 11.613281 24.683594 12.234375 Z M 24.683594 12.234375 " fill-opacity="1" fill-rule="evenodd"/></g></g></g><g clip-path="url(#5815e28f42)"><g clip-path="url(#03e9f8188f)"><g clip-path="url(#08d609b4fd)"><path fill="#4594be" d="M 12.652344 26.277344 C 12.652344 26.277344 13.4375 25.804688 13.5625 26.015625 C 13.585938 26.054688 13.570312 26.113281 13.542969 26.195312 C 13.515625 26.292969 13.46875 26.421875 13.355469 26.601562 C 13.355469 26.601562 4.449219 34.675781 9.195312 39.082031 C 9.195312 39.082031 11.917969 43.132812 21.417969 36.542969 C 24.964844 34.105469 29.882812 29.410156 26.640625 25.6875 C 26.640625 25.6875 26.328125 25.390625 26.007812 25.167969 C 25.679688 24.941406 25.308594 24.789062 25.457031 24.828125 C 26.71875 25.160156 30.386719 26.882812 28.488281 31.242188 C 25.257812 38.675781 13.472656 44.359375 8.980469 42.90625 C 8.980469 42.90625 2.230469 40.253906 8.207031 31.195312 C 8.207031 31.195312 10.277344 27.964844 12.652344 26.277344 Z M 12.652344 26.277344 " fill-opacity="1" fill-rule="nonzero"/></g></g></g><g clip-path="url(#68c93997a0)"><g clip-path="url(#8650254986)"><g clip-path="url(#031c12c79d)"><path fill="#4594be" d="M 11.289062 31.136719 C 6.328125 39.582031 16.65625 38.238281 16.65625 38.238281 C 16.65625 38.238281 11.457031 40.300781 9.53125 37.921875 C 7.605469 35.546875 10.839844 31.730469 11.289062 31.136719 Z M 11.289062 31.136719 " fill-opacity="1" fill-rule="evenodd"/></g></g></g></svg>