<svg aria-hidden="false" aria-label="Interactive chart" viewBox="0 0 650 400" height="400" width="650" xmlns="http://www.w3.org/2000/svg" style="font-family: Roboto; font-size: 12px;" class="highcharts-root" version="1.1" xmlns:xlink="http://www.w3.org/1999/xlink"><desc aria-hidden="true">Created with Highcharts 10.3.1</desc><defs aria-hidden="true"><clipPath id="highcharts-8vu168c-692-"><rect fill="none" height="307" width="630" y="0" x="0"></rect></clipPath></defs><rect aria-hidden="true" ry="0" rx="0" height="400" width="650" y="0" x="0" class="highcharts-background" fill="#ffffff"></rect><rect aria-hidden="true" height="307" width="630" y="10" x="10" class="highcharts-plot-background" fill="none"></rect><g aria-hidden="true" data-z-index="0" class="highcharts-pane-group"></g><rect aria-hidden="true" height="307" width="630" y="10" x="10" data-z-index="1" class="highcharts-plot-border" fill="none"></rect><g aria-hidden="false" data-z-index="3" class="highcharts-series-group"><g aria-hidden="false" clip-path="none" transform="translate(10,10) scale(1 1)" opacity="1" data-z-index="0.1" class="highcharts-series highcharts-series-0 highcharts-pie-series"><path aria-label="Healthcare, 22." role="img" style="outline: none;" tabindex="-1" class="highcharts-point highcharts-color-0" stroke-linejoin="round" opacity="1" stroke-width="1" stroke="#ffffff" transform="translate(0,0)" d="M 314.9762109698084 36.700002422594025 A 116.8 116.8 0 0 1 429.72009602791144 131.55599017164863 L 315 153.5 A 0 0 0 0 0 315 153.5 Z" fill="#005ea2"></path><path aria-label="Tehcnology, 16." role="img" style="outline: none;" tabindex="-1" class="highcharts-point highcharts-color-1" stroke-linejoin="round" opacity="1" stroke-width="1" stroke="#ffffff" transform="translate(0,0)" d="M 429.7419826740392 131.67072122056052 A 116.8 116.8 0 0 1 395.02438996528605 238.57841683226025 L 315 153.5 A 0 0 0 0 0 315 153.5 Z" fill="#d83933"></path><path aria-label="Retail, 14." role="img" style="outline: none;" tabindex="-1" class="highcharts-point highcharts-color-2" stroke-linejoin="round" opacity="1" stroke-width="1" stroke="#ffffff" transform="translate(0,0)" d="M 394.93927155044184 238.65839866968327 A 116.8 116.8 0 0 1 300.5302810151087 269.4002469043887 L 315 153.5 A 0 0 0 0 0 315 153.5 Z" fill="#00bde3"></path><path aria-label="Education, 12." role="img" style="outline: none;" tabindex="-1" class="highcharts-point highcharts-color-3" stroke-linejoin="round" opacity="1" stroke-width="1" stroke="#ffffff" transform="translate(0,0)" d="M 300.4143880223799 269.3857192376969 A 116.8 116.8 0 0 1 225.11152541357012 228.0808429593334 L 315 153.5 A 0 0 0 0 0 315 153.5 Z" fill="#fa9441"></path><path aria-label="Manufacturing, 11." role="img" style="outline: none;" tabindex="-1" class="highcharts-point highcharts-color-4" stroke-linejoin="round" opacity="1" stroke-width="1" stroke="#ffffff" transform="translate(0,0)" d="M 225.0369895272745 227.99091720931003 A 116.8 116.8 0 0 1 198.2000205123148 153.56922193523562 L 315 153.5 A 0 0 0 0 0 315 153.5 Z" fill="#676cc8"></path><path aria-label="Accomodation &amp; Food, 11." role="img" style="outline: none;" tabindex="-1" class="highcharts-point highcharts-color-5" stroke-linejoin="round" opacity="1" stroke-width="1" stroke="#ffffff" transform="translate(0,0)" d="M 198.20000969037596 153.45242194060364 A 116.8 116.8 0 0 1 224.9487581258656 79.115768896048 L 315 153.5 A 0 0 0 0 0 315 153.5 Z" fill="#04c585"></path><path aria-label="Transportation, 6." role="img" style="outline: none;" tabindex="-1" class="highcharts-point highcharts-color-6" stroke-linejoin="round" opacity="1" stroke-width="1" stroke="#ffffff" transform="translate(0,0)" d="M 225.02318737018933 79.02575486129487 A 116.8 116.8 0 0 1 258.6560432648466 51.18871743826509 L 315 153.5 A 0 0 0 0 0 315 153.5 Z" fill="#d72d79"></path><path aria-label="Construction, 5." role="img" style="outline: none;" tabindex="-1" class="highcharts-point highcharts-color-7" stroke-linejoin="round" opacity="1" stroke-width="1" stroke="#ffffff" transform="translate(0,0)" d="M 258.7583827023325 51.132424646557595 A 116.8 116.8 0 0 1 293.0113679658166 38.788448440162384 L 315 153.5 A 0 0 0 0 0 315 153.5 Z" fill="#a44f01"></path><path aria-label="Others, 3." role="img" style="outline: none;" tabindex="-1" class="highcharts-point highcharts-color-8" stroke-linejoin="round" opacity="1" stroke-width="1" stroke="#ffffff" transform="translate(0,0)" d="M 293.126090492573 38.76651716756396 A 116.8 116.8 0 0 1 314.83776714323324 36.70011266914601 L 315 153.5 A 0 0 0 0 0 315 153.5 Z" fill="#8168b3"></path></g><g aria-hidden="true" clip-path="none" transform="translate(10,10) scale(1 1)" opacity="1" data-z-index="0.1" class="highcharts-markers highcharts-series-0 highcharts-pie-series"></g></g><text aria-hidden="true" y="24" style="color: rgb(51, 51, 51); font-size: 18px; fill: rgb(51, 51, 51);" data-z-index="4" class="highcharts-title" text-anchor="middle" x="325"></text><text aria-hidden="true" y="24" style="color: rgb(102, 102, 102); fill: rgb(102, 102, 102);" data-z-index="4" class="highcharts-subtitle" text-anchor="middle" x="325"></text><text aria-hidden="true" y="397" style="color: rgb(102, 102, 102); fill: rgb(102, 102, 102);" data-z-index="4" class="highcharts-caption" text-anchor="start" x="10"></text><g aria-hidden="true" transform="translate(10,10) scale(1 1)" opacity="1" data-z-index="6" class="highcharts-data-labels highcharts-series-0 highcharts-pie-series"><path d="M 413.57384169510766 40.38865596051414 C 408.57384169510766 40.38865596051414 397.1002098796312 54.25789433047835 393.2756659411391 58.88097378713309 L 389.45112200264697 63.50405324378782" stroke-width="1" stroke="#005ea2" class="highcharts-data-label-connector highcharts-color-0" fill="none"></path><path d="M 459.61509659212857 198.86369477424228 C 454.61509659212857 198.86369477424228 437.4960792988158 193.30138887549322 431.7897402010449 191.44728690924353 L 426.08340110327396 189.59318494299384" stroke-width="1" stroke="#d83933" class="highcharts-data-label-connector highcharts-color-1" fill="none"></path><path d="M 365.3636947742424 293.1150965921285 C 360.3636947742424 293.1150965921285 354.8013888754932 275.99607929881574 352.94728690924353 270.2897402010448 L 351.09318494299384 264.5834011032739" stroke-width="1" stroke="#00bde3" class="highcharts-data-label-connector highcharts-color-2" fill="none"></path><path d="M 239.27856064186813 282.14182063043916 C 244.27856064186813 282.14182063043916 252.95012677569906 266.3683003896496 255.84064882030935 261.11046030938644 L 258.73117086491965 255.85262022912326" stroke-width="1" stroke="#fa9441" class="highcharts-data-label-connector highcharts-color-3" fill="none"></path><path d="M 171.87870311751968 203.22672669200875 C 176.87870311751968 203.22672669200875 193.81455695869576 197.12944412759356 199.4598415724211 195.0970166061218 L 205.10512618614646 193.06458908465004" stroke-width="1" stroke="#676cc8" class="highcharts-data-label-connector highcharts-color-4" fill="none"></path><path d="M 171.87870311751968 103.77327330799127 C 176.87870311751968 103.77327330799127 193.81455695869573 109.87055587240651 199.45984157242108 111.90298339387826 L 205.10512618614644 113.93541091535" stroke-width="1" stroke="#04c585" class="highcharts-data-label-connector highcharts-color-5" fill="none"></path><path d="M 203.65715966195887 52.2999984741211 C 208.65715966195887 52.2999984741211 232.89979012036872 54.25789433047839 236.72433405886085 58.88097378713313 L 240.54887799735297 63.504053243787865" stroke-width="1" stroke="#d72d79" class="highcharts-data-label-connector highcharts-color-6" fill="none"></path><path d="M 231.423668889474 29.49999923706055 C 236.423668889474 29.49999923706055 271.3705558724065 32.31455695869576 273.40298339387823 37.95984157242111 L 275.43541091534996 43.605126186146464" stroke-width="1" stroke="#a44f01" class="highcharts-data-label-connector highcharts-color-7" fill="none"></path><path d="M 296.1848996048419 6.700000000000003 C 301.1848996048419 6.700000000000003 302.8788492445754 25.271618959123295 303.4434991244865 31.244990746741774 L 304.0081490043976 37.21836253436025" stroke-width="1" stroke="#8168b3" class="highcharts-data-label-connector highcharts-color-8" fill="none"></path><g transform="translate(419,30)" style="cursor: pointer;" data-z-index="1" class="highcharts-label highcharts-data-label highcharts-data-label-color-0"><text style="color: rgb(0, 0, 0); font-size: 11px; font-weight: bold; fill: rgb(0, 0, 0);" y="16" data-z-index="1" x="5"><tspan style="font-weight: bold;">Healthcare</tspan>: 22.0 %</text></g><g transform="translate(465,189)" style="cursor: pointer;" data-z-index="1" class="highcharts-label highcharts-data-label highcharts-data-label-color-1"><text style="color: rgb(0, 0, 0); font-size: 11px; font-weight: bold; fill: rgb(0, 0, 0);" y="16" data-z-index="1" x="5"><tspan style="font-weight: bold;">Tehcnology</tspan>: 16.0 %</text></g><g transform="translate(370,283)" style="cursor: pointer;" data-z-index="1" class="highcharts-label highcharts-data-label highcharts-data-label-color-2"><text style="color: rgb(0, 0, 0); font-size: 11px; font-weight: bold; fill: rgb(0, 0, 0);" y="16" data-z-index="1" x="5"><tspan style="font-weight: bold;">Retail</tspan>: 14.0 %</text></g><g transform="translate(132,272)" style="cursor: pointer;" data-z-index="1" class="highcharts-label highcharts-data-label highcharts-data-label-color-3"><text style="color: rgb(0, 0, 0); font-size: 11px; font-weight: bold; fill: rgb(0, 0, 0);" y="16" data-z-index="1" x="5"><tspan style="font-weight: bold;">Education</tspan>: 12.0 %</text></g><g transform="translate(40,193)" style="cursor: pointer;" data-z-index="1" class="highcharts-label highcharts-data-label highcharts-data-label-color-4"><text style="color: rgb(0, 0, 0); font-size: 11px; font-weight: bold; fill: rgb(0, 0, 0);" y="16" data-z-index="1" x="5"><tspan style="font-weight: bold;">Manufacturing</tspan>: 11.0 %</text></g><g transform="translate(1,94)" style="cursor: pointer;" data-z-index="1" class="highcharts-label highcharts-data-label highcharts-data-label-color-5"><text style="color: rgb(0, 0, 0); font-size: 11px; font-weight: bold; fill: rgb(0, 0, 0);" y="16" data-z-index="1" x="5"><tspan style="font-weight: bold;">Accomodation &amp; Food</tspan>: 11.0 %</text></g><g transform="translate(77,42)" style="cursor: pointer;" data-z-index="1" class="highcharts-label highcharts-data-label highcharts-data-label-color-6"><text style="color: rgb(0, 0, 0); font-size: 11px; font-weight: bold; fill: rgb(0, 0, 0);" y="16" data-z-index="1" x="5"><tspan style="font-weight: bold;">Transportation</tspan>: 6.0 %</text></g><g transform="translate(115,19)" style="cursor: pointer;" data-z-index="1" class="highcharts-label highcharts-data-label highcharts-data-label-color-7"><text style="color: rgb(0, 0, 0); font-size: 11px; font-weight: bold; fill: rgb(0, 0, 0);" y="16" data-z-index="1" x="5"><tspan style="font-weight: bold;">Construction</tspan>: 5.0 %</text></g><g transform="translate(212,-3)" style="cursor: pointer;" data-z-index="1" class="highcharts-label highcharts-data-label highcharts-data-label-color-8"><text style="color: rgb(0, 0, 0); font-size: 11px; font-weight: bold; fill: rgb(0, 0, 0);" y="16" data-z-index="1" x="5"><tspan style="font-weight: bold;">Others</tspan>: 3.0 %</text></g></g><g aria-hidden="true" transform="translate(77,329)" data-z-index="7" class="highcharts-legend highcharts-no-tooltip"><rect height="56" width="496" y="0" x="0" ry="0" rx="0" class="highcharts-legend-box" fill="none"></rect><g data-z-index="1"><g><g transform="translate(8,3)" data-z-index="1" class="highcharts-legend-item highcharts-pie-series highcharts-color-0"><text y="15" data-z-index="2" text-anchor="start" style="color: rgb(51, 51, 51); cursor: pointer; font-size: 12px; font-weight: bold; fill: rgb(51, 51, 51);" x="21">Healthcare</text><rect data-z-index="3" class="highcharts-point" ry="6" rx="6" fill="#005ea2" height="12" width="12" y="4" x="2"></rect></g><g transform="translate(174.9499969482422,3)" data-z-index="1" class="highcharts-legend-item highcharts-pie-series highcharts-color-1"><text data-z-index="2" text-anchor="start" style="color: rgb(51, 51, 51); cursor: pointer; font-size: 12px; font-weight: bold; fill: rgb(51, 51, 51);" y="15" x="21">Tehcnology</text><rect data-z-index="3" class="highcharts-point" ry="6" rx="6" fill="#d83933" height="12" width="12" y="4" x="2"></rect></g><g transform="translate(341.8999938964844,3)" data-z-index="1" class="highcharts-legend-item highcharts-pie-series highcharts-color-2"><text data-z-index="2" text-anchor="start" style="color: rgb(51, 51, 51); cursor: pointer; font-size: 12px; font-weight: bold; fill: rgb(51, 51, 51);" y="15" x="21">Retail</text><rect data-z-index="3" class="highcharts-point" ry="6" rx="6" fill="#00bde3" height="12" width="12" y="4" x="2"></rect></g><g transform="translate(8,18)" data-z-index="1" class="highcharts-legend-item highcharts-pie-series highcharts-color-3"><text data-z-index="2" text-anchor="start" style="color: rgb(51, 51, 51); cursor: pointer; font-size: 12px; font-weight: bold; fill: rgb(51, 51, 51);" y="15" x="21">Education</text><rect data-z-index="3" class="highcharts-point" ry="6" rx="6" fill="#fa9441" height="12" width="12" y="4" x="2"></rect></g><g transform="translate(174.9499969482422,18)" data-z-index="1" class="highcharts-legend-item highcharts-pie-series highcharts-color-4"><text data-z-index="2" text-anchor="start" style="color: rgb(51, 51, 51); cursor: pointer; font-size: 12px; font-weight: bold; fill: rgb(51, 51, 51);" y="15" x="21">Manufacturing</text><rect data-z-index="3" class="highcharts-point" ry="6" rx="6" fill="#676cc8" height="12" width="12" y="4" x="2"></rect></g><g transform="translate(341.8999938964844,18)" data-z-index="1" class="highcharts-legend-item highcharts-pie-series highcharts-color-5"><text data-z-index="2" text-anchor="start" style="color: rgb(51, 51, 51); cursor: pointer; font-size: 12px; font-weight: bold; fill: rgb(51, 51, 51);" y="15" x="21">Accomodation &amp; Food</text><rect data-z-index="3" class="highcharts-point" ry="6" rx="6" fill="#04c585" height="12" width="12" y="4" x="2"></rect></g><g transform="translate(8,33)" data-z-index="1" class="highcharts-legend-item highcharts-pie-series highcharts-color-6"><text data-z-index="2" text-anchor="start" style="color: rgb(51, 51, 51); cursor: pointer; font-size: 12px; font-weight: bold; fill: rgb(51, 51, 51);" y="15" x="21">Transportation</text><rect data-z-index="3" class="highcharts-point" ry="6" rx="6" fill="#d72d79" height="12" width="12" y="4" x="2"></rect></g><g transform="translate(174.9499969482422,33)" data-z-index="1" class="highcharts-legend-item highcharts-pie-series highcharts-color-7"><text data-z-index="2" text-anchor="start" style="color: rgb(51, 51, 51); cursor: pointer; font-size: 12px; font-weight: bold; fill: rgb(51, 51, 51);" y="15" x="21">Construction</text><rect data-z-index="3" class="highcharts-point" ry="6" rx="6" fill="#a44f01" height="12" width="12" y="4" x="2"></rect></g><g transform="translate(341.8999938964844,33)" data-z-index="1" class="highcharts-legend-item highcharts-pie-series highcharts-color-8"><text data-z-index="2" text-anchor="start" style="color: rgb(51, 51, 51); cursor: pointer; font-size: 12px; font-weight: bold; fill: rgb(51, 51, 51);" y="15" x="21">Others</text><rect data-z-index="3" class="highcharts-point" ry="6" rx="6" fill="#8168b3" height="12" width="12" y="4" x="2"></rect></g></g></g></g><text aria-hidden="false" aria-label="Chart credits: Highcharts.com" y="395" style="cursor: pointer; color: rgb(153, 153, 153); font-size: 9px; fill: rgb(153, 153, 153);" data-z-index="8" text-anchor="end" class="highcharts-credits" x="640">Highcharts.com</text></svg>