<svg aria-hidden="false" aria-label="Interactive chart" viewBox="0 0 640 420" height="420" width="640" xmlns="http://www.w3.org/2000/svg" style="font-family: Roboto; font-size: 12px;" class="highcharts-root" version="1.1" xmlns:xlink="http://www.w3.org/1999/xlink"><desc aria-hidden="true">Created with Highcharts 10.3.1</desc><defs aria-hidden="true"><clipPath id="highcharts-n05ol8b-435-"><rect fill="none" height="374" width="581" y="0" x="0"></rect></clipPath><clipPath id="highcharts-n05ol8b-447-"><rect fill="none" height="374" width="581" y="0" x="0"></rect></clipPath></defs><rect aria-hidden="true" ry="0" rx="0" height="420" width="640" y="0" x="0" class="highcharts-background" fill="#ffffff"></rect><rect aria-hidden="true" height="374" width="581" y="10" x="49" class="highcharts-plot-background" fill="none"></rect><g aria-hidden="true" data-z-index="0" class="highcharts-pane-group"></g><g aria-hidden="true" data-z-index="1" class="highcharts-grid highcharts-xaxis-grid"><path opacity="1" d="M 101.5 10 L 101.5 384" class="highcharts-grid-line" data-z-index="1" stroke-dasharray="none" fill="none"></path><path opacity="1" d="M 154.5 10 L 154.5 384" class="highcharts-grid-line" data-z-index="1" stroke-dasharray="none" fill="none"></path><path opacity="1" d="M 206.5 10 L 206.5 384" class="highcharts-grid-line" data-z-index="1" stroke-dasharray="none" fill="none"></path><path opacity="1" d="M 259.5 10 L 259.5 384" class="highcharts-grid-line" data-z-index="1" stroke-dasharray="none" fill="none"></path><path opacity="1" d="M 312.5 10 L 312.5 384" class="highcharts-grid-line" data-z-index="1" stroke-dasharray="none" fill="none"></path><path opacity="1" d="M 365.5 10 L 365.5 384" class="highcharts-grid-line" data-z-index="1" stroke-dasharray="none" fill="none"></path><path opacity="1" d="M 418.5 10 L 418.5 384" class="highcharts-grid-line" data-z-index="1" stroke-dasharray="none" fill="none"></path><path opacity="1" d="M 471.5 10 L 471.5 384" class="highcharts-grid-line" data-z-index="1" stroke-dasharray="none" fill="none"></path><path opacity="1" d="M 523.5 10 L 523.5 384" class="highcharts-grid-line" data-z-index="1" stroke-dasharray="none" fill="none"></path><path opacity="1" d="M 576.5 10 L 576.5 384" class="highcharts-grid-line" data-z-index="1" stroke-dasharray="none" fill="none"></path><path opacity="1" d="M 629.5 10 L 629.5 384" class="highcharts-grid-line" data-z-index="1" stroke-dasharray="none" fill="none"></path><path opacity="1" d="M 48.5 10 L 48.5 384" class="highcharts-grid-line" data-z-index="1" stroke-dasharray="none" fill="none"></path></g><g aria-hidden="true" data-z-index="1" class="highcharts-grid highcharts-yaxis-grid"><path opacity="1" d="M 49 384.5 L 630 384.5" class="highcharts-grid-line" data-z-index="1" stroke-dasharray="none" stroke-width="1" stroke="#e6e6e6" fill="none"></path><path opacity="1" d="M 49 331.5 L 630 331.5" class="highcharts-grid-line" data-z-index="1" stroke-dasharray="none" stroke-width="1" stroke="#e6e6e6" fill="none"></path><path opacity="1" d="M 49 277.5 L 630 277.5" class="highcharts-grid-line" data-z-index="1" stroke-dasharray="none" stroke-width="1" stroke="#e6e6e6" fill="none"></path><path opacity="1" d="M 49 224.5 L 630 224.5" class="highcharts-grid-line" data-z-index="1" stroke-dasharray="none" stroke-width="1" stroke="#e6e6e6" fill="none"></path><path opacity="1" d="M 49 170.5 L 630 170.5" class="highcharts-grid-line" data-z-index="1" stroke-dasharray="none" stroke-width="1" stroke="#e6e6e6" fill="none"></path><path opacity="1" d="M 49 117.5 L 630 117.5" class="highcharts-grid-line" data-z-index="1" stroke-dasharray="none" stroke-width="1" stroke="#e6e6e6" fill="none"></path><path opacity="1" d="M 49 63.5 L 630 63.5" class="highcharts-grid-line" data-z-index="1" stroke-dasharray="none" stroke-width="1" stroke="#e6e6e6" fill="none"></path><path opacity="1" d="M 49 9.5 L 630 9.5" class="highcharts-grid-line" data-z-index="1" stroke-dasharray="none" stroke-width="1" stroke="#e6e6e6" fill="none"></path></g><rect aria-hidden="true" height="374" width="581" y="10" x="49" data-z-index="1" class="highcharts-plot-border" fill="none"></rect><g aria-hidden="true" data-z-index="2" class="highcharts-axis highcharts-xaxis"><path d="M 49 384.5 L 630 384.5" data-z-index="7" stroke-width="1" stroke="#ccd6eb" class="highcharts-axis-line" fill="none"></path></g><g aria-hidden="true" data-z-index="2" class="highcharts-axis highcharts-yaxis"><path d="M 49 10 L 49 384" data-z-index="7" class="highcharts-axis-line" fill="none"></path></g><g aria-hidden="false" data-z-index="3" class="highcharts-series-group"><g aria-hidden="true" clip-path="url(#highcharts-n05ol8b-447-)" transform="translate(49,10) scale(1 1)" opacity="1" data-z-index="0.1" class="highcharts-series highcharts-series-0 highcharts-spline-series"><path stroke-linecap="round" stroke-linejoin="round" stroke-width="2" stroke="#005ea2" data-z-index="1" class="highcharts-graph" d="M 26.409090909091 315.160182857143 C 26.409090909091 315.160182857143 58.10000000000021 304.6509965714291 79.227272727273 297.926262857143 C 100.35454545454381 291.2015291428575 110.9181818181792 292.17264685714133 132.04545454545 281.536514285714 C 153.17272727272604 270.9003817142841 163.73636363636402 259.3615200000022 184.86363636364 244.7456 C 205.990909090912 230.12968000000058 216.554545454548 218.99046399999602 237.68181818182 208.45691428571 C 258.809090909092 197.923364571424 269.372727272728 203.94967999999798 290.5 192.07785142857 C 311.627272727272 180.206022857142 322.190909090908 166.420169142856 343.31818181818 149.09777142857 C 364.445454545452 131.775373714284 375.009090909088 120.46262171428198 396.13636363636 105.46586285714 C 417.26363636363203 90.46910399999797 427.827272727268 84.66034971428698 448.95454545454 74.11397714286 C 470.081818181816 63.567604571430984 480.64545454545396 61.979280000000855 501.77272727273 52.73399999999998 C 522.900000000002 43.48872000000085 554.59090909091 27.887577142859982 554.59090909091 27.887577142859982" fill="none"></path></g><g aria-hidden="false" clip-path="none" transform="translate(49,10) scale(1 1)" opacity="1" data-z-index="0.1" class="highcharts-markers highcharts-series-0 highcharts-spline-series"><path aria-label="2015, 102,532. Item 1." role="img" style="outline: none;" tabindex="-1" class="highcharts-point" opacity="1" d="M 26 319 A 4 4 0 1 1 26.003999999333335 318.9999980000002 Z" fill="#005ea2"></path><path aria-label="2016, 110,596. Item 1." role="img" style="outline: none;" tabindex="-1" class="highcharts-point" opacity="1" d="M 79 302 A 4 4 0 1 1 79.00399999933333 301.9999980000002 Z" fill="#005ea2"></path><path aria-label="2017, 118,265. Item 1." role="img" style="outline: none;" tabindex="-1" class="highcharts-point" opacity="1" d="M 132 286 A 4 4 0 1 1 132.00399999933333 285.9999980000002 Z" fill="#005ea2"></path><path aria-label="2018, 135,480. Item 1." role="img" style="outline: none;" tabindex="-1" class="highcharts-point" opacity="1" d="M 184 249 A 4 4 0 1 1 184.00399999933333 248.99999800000018 Z" fill="#005ea2"></path><path aria-label="2019, 152,460. Item 1." role="img" style="outline: none;" tabindex="-1" class="highcharts-point" opacity="1" d="M 237 212 A 4 4 0 1 1 237.00399999933333 211.99999800000018 Z" fill="#005ea2"></path><path aria-label="2020, 160,124. Item 1." role="img" style="outline: none;" tabindex="-1" class="highcharts-point" opacity="1" d="M 290 196 A 4 4 0 1 1 290.00399999933336 195.99999800000018 Z" fill="#005ea2"></path><path aria-label="2021, 180,235. Item 1." role="img" style="outline: none;" tabindex="-1" class="highcharts-point" opacity="1" d="M 343 153 A 4 4 0 1 1 343.00399999933336 152.99999800000018 Z" fill="#005ea2"></path><path aria-label="2022, 200,651. Item 1." role="img" style="outline: none;" tabindex="-1" class="highcharts-point" opacity="1" d="M 396 109 A 4 4 0 1 1 396.00399999933336 108.99999800000016 Z" fill="#005ea2"></path><path aria-label="2023, 215,321. Item 1." role="img" style="outline: none;" tabindex="-1" class="highcharts-point" opacity="1" d="M 448 78 A 4 4 0 1 1 448.00399999933336 77.99999800000016 Z" fill="#005ea2"></path><path aria-label="2024, 225,325. Item 1." role="img" style="outline: none;" tabindex="-1" class="highcharts-point" opacity="1" d="M 501 57 A 4 4 0 1 1 501.00399999933336 56.99999800000017 Z" fill="#005ea2"></path><path aria-label="2025, 236,951. Item 1." role="img" style="outline: none;" tabindex="-1" class="highcharts-point" opacity="1" d="M 554 32 A 4 4 0 1 1 554.0039999993334 31.99999800000017 Z" fill="#005ea2"></path></g></g><text aria-hidden="true" y="24" style="color: rgb(51, 51, 51); font-size: 18px; fill: rgb(51, 51, 51);" data-z-index="4" class="highcharts-title" text-anchor="middle" x="320"></text><text aria-hidden="true" y="24" style="color: rgb(102, 102, 102); fill: rgb(102, 102, 102);" data-z-index="4" class="highcharts-subtitle" text-anchor="middle" x="320"></text><text aria-hidden="true" y="417" style="color: rgb(102, 102, 102); fill: rgb(102, 102, 102);" data-z-index="4" class="highcharts-caption" text-anchor="start" x="10"></text><g aria-hidden="true" visibility="hidden" data-z-index="7" class="highcharts-legend highcharts-no-tooltip"><rect height="8" width="8" y="0" x="0" ry="0" rx="0" class="highcharts-legend-box" fill="none"></rect><g data-z-index="1"><g></g></g></g><g aria-hidden="true" data-z-index="7" class="highcharts-axis-labels highcharts-xaxis-labels"><text opacity="1" y="403" transform="translate(0,0)" text-anchor="middle" style="color: rgb(102, 102, 102); cursor: default; font-size: 11px; fill: rgb(102, 102, 102);" x="75.40909090908909">2015</text><text opacity="1" y="403" transform="translate(0,0)" text-anchor="middle" style="color: rgb(102, 102, 102); cursor: default; font-size: 11px; fill: rgb(102, 102, 102);" x="128.22727272726908">2016</text><text opacity="1" y="403" transform="translate(0,0)" text-anchor="middle" style="color: rgb(102, 102, 102); cursor: default; font-size: 11px; fill: rgb(102, 102, 102);" x="181.0454545454491">2017</text><text opacity="1" y="403" transform="translate(0,0)" text-anchor="middle" style="color: rgb(102, 102, 102); cursor: default; font-size: 11px; fill: rgb(102, 102, 102);" x="233.86363636363907">2018</text><text opacity="1" y="403" transform="translate(0,0)" text-anchor="middle" style="color: rgb(102, 102, 102); cursor: default; font-size: 11px; fill: rgb(102, 102, 102);" x="286.68181818181904">2019</text><text opacity="1" y="403" transform="translate(0,0)" text-anchor="middle" style="color: rgb(102, 102, 102); cursor: default; font-size: 11px; fill: rgb(102, 102, 102);" x="339.4999999999991">2020</text><text opacity="1" y="403" transform="translate(0,0)" text-anchor="middle" style="color: rgb(102, 102, 102); cursor: default; font-size: 11px; fill: rgb(102, 102, 102);" x="392.3181818181791">2021</text><text opacity="1" y="403" transform="translate(0,0)" text-anchor="middle" style="color: rgb(102, 102, 102); cursor: default; font-size: 11px; fill: rgb(102, 102, 102);" x="445.1363636363591">2022</text><text opacity="1" y="403" transform="translate(0,0)" text-anchor="middle" style="color: rgb(102, 102, 102); cursor: default; font-size: 11px; fill: rgb(102, 102, 102);" x="497.9545454545491">2023</text><text opacity="1" y="403" transform="translate(0,0)" text-anchor="middle" style="color: rgb(102, 102, 102); cursor: default; font-size: 11px; fill: rgb(102, 102, 102);" x="550.7727272727291">2024</text><text opacity="1" y="403" transform="translate(0,0)" text-anchor="middle" style="color: rgb(102, 102, 102); cursor: default; font-size: 11px; fill: rgb(102, 102, 102);" x="603.5909090909091">2025</text></g><g aria-hidden="true" data-z-index="7" class="highcharts-axis-labels highcharts-yaxis-labels"><text opacity="1" y="389" transform="translate(0,0)" text-anchor="end" style="color: rgb(102, 102, 102); cursor: default; font-size: 11px; fill: rgb(102, 102, 102);" x="34">75k</text><text opacity="1" y="335" transform="translate(0,0)" text-anchor="end" style="color: rgb(102, 102, 102); cursor: default; font-size: 11px; fill: rgb(102, 102, 102);" x="34">100k</text><text opacity="1" y="282" transform="translate(0,0)" text-anchor="end" style="color: rgb(102, 102, 102); cursor: default; font-size: 11px; fill: rgb(102, 102, 102);" x="34">125k</text><text opacity="1" y="228" transform="translate(0,0)" text-anchor="end" style="color: rgb(102, 102, 102); cursor: default; font-size: 11px; fill: rgb(102, 102, 102);" x="34">150k</text><text opacity="1" y="175" transform="translate(0,0)" text-anchor="end" style="color: rgb(102, 102, 102); cursor: default; font-size: 11px; fill: rgb(102, 102, 102);" x="34">175k</text><text opacity="1" y="121" transform="translate(0,0)" text-anchor="end" style="color: rgb(102, 102, 102); cursor: default; font-size: 11px; fill: rgb(102, 102, 102);" x="34">200k</text><text opacity="1" y="68" transform="translate(0,0)" text-anchor="end" style="color: rgb(102, 102, 102); cursor: default; font-size: 11px; fill: rgb(102, 102, 102);" x="34">225k</text><text opacity="1" y="15" transform="translate(0,0)" text-anchor="end" style="color: rgb(102, 102, 102); cursor: default; font-size: 11px; fill: rgb(102, 102, 102);" x="34">250k</text></g><text aria-hidden="false" aria-label="Chart credits: Highcharts.com" y="415" style="cursor: pointer; color: rgb(153, 153, 153); font-size: 9px; fill: rgb(153, 153, 153);" data-z-index="8" text-anchor="end" class="highcharts-credits" x="630">Highcharts.com</text></svg>