<svg aria-hidden="false" aria-label="Interactive chart" viewBox="0 0 650 400" height="400" width="650" xmlns="http://www.w3.org/2000/svg" style="font-family: Roboto; font-size: 12px;" class="highcharts-root" version="1.1" xmlns:xlink="http://www.w3.org/1999/xlink"><desc aria-hidden="true">Created with Highcharts 10.3.1</desc><defs aria-hidden="true"><clipPath id="highcharts-8vu168c-420-"><rect fill="none" height="322" width="630" y="0" x="0"></rect></clipPath></defs><rect aria-hidden="true" ry="0" rx="0" height="400" width="650" y="0" x="0" class="highcharts-background" fill="#ffffff"></rect><rect aria-hidden="true" height="322" width="630" y="10" x="10" class="highcharts-plot-background" fill="none"></rect><g aria-hidden="true" data-z-index="0" class="highcharts-pane-group"></g><rect aria-hidden="true" height="322" width="630" y="10" x="10" data-z-index="1" class="highcharts-plot-border" fill="none"></rect><g aria-hidden="false" data-z-index="3" class="highcharts-series-group"><g aria-hidden="false" clip-path="none" transform="translate(10,10) scale(1 1)" opacity="1" data-z-index="0.1" class="highcharts-series highcharts-series-0 highcharts-pie-series"><path aria-label="White, 44.9." role="img" style="outline: none;" tabindex="-1" class="highcharts-point highcharts-color-0" stroke-linejoin="round" opacity="1" stroke-width="1" stroke="#ffffff" transform="translate(0,0)" d="M 314.9749889305862 38.200002547042345 A 122.8 122.8 0 0 1 353.8381020331819 277.49653140956667 L 315 161 A 0 0 0 0 0 315 161 Z" fill="#005ea2"></path><path aria-label="Black, 18.1." role="img" style="outline: none;" tabindex="-1" class="highcharts-point highcharts-color-1" stroke-linejoin="round" opacity="1" stroke-width="1" stroke="#ffffff" transform="translate(0,0)" d="M 353.721586102139 277.53531125686595 A 122.8 122.8 0 0 1 225.53398231271024 245.11701182981687 L 315 161 A 0 0 0 0 0 315 161 Z" fill="#d83933"></path><path aria-label="Hispanic, 17.5." role="img" style="outline: none;" tabindex="-1" class="highcharts-point highcharts-color-2" stroke-linejoin="round" opacity="1" stroke-width="1" stroke="#ffffff" transform="translate(0,0)" d="M 225.44991004790504 245.02750376853817 A 122.8 122.8 0 0 1 199.4113414859134 119.53794478183855 L 315 161 A 0 0 0 0 0 315 161 Z" fill="#00bde3"></path><path aria-label="Asian, 13.5." role="img" style="outline: none;" tabindex="-1" class="highcharts-point highcharts-color-3" stroke-linejoin="round" opacity="1" stroke-width="1" stroke="#ffffff" transform="translate(0,0)" d="M 199.45286132854562 119.42237687361512 A 122.8 122.8 0 0 1 269.6347460899412 46.88675038508502 L 315 161 A 0 0 0 0 0 315 161 Z" fill="#fa9441"></path><path aria-label="Multiracial*, 3.5." role="img" style="outline: none;" tabindex="-1" class="highcharts-point highcharts-color-4" stroke-linejoin="round" opacity="1" stroke-width="1" stroke="#ffffff" transform="translate(0,0)" d="M 269.74888200316235 46.84144219535587 A 122.8 122.8 0 0 1 295.6310558729344 39.73712850421771 L 315 161 A 0 0 0 0 0 315 161 Z" fill="#676cc8"></path><path aria-label="Native Americans, 1.5." role="img" style="outline: none;" tabindex="-1" class="highcharts-point highcharts-color-5" stroke-linejoin="round" opacity="1" stroke-width="1" stroke="#ffffff" transform="translate(0,0)" d="M 295.75232840869097 39.71782019474949 A 122.8 122.8 0 0 1 307.2210451698071 38.446632597264724 L 315 161 A 0 0 0 0 0 315 161 Z" fill="#04c585"></path><path aria-label="Others, 1." role="img" style="outline: none;" tabindex="-1" class="highcharts-point highcharts-color-6" stroke-linejoin="round" opacity="1" stroke-width="1" stroke="#ffffff" transform="translate(0,0)" d="M 307.3436024062614 38.4389149204096 A 122.8 122.8 0 0 1 314.8294332636048 38.20011845694461 L 315 161 A 0 0 0 0 0 315 161 Z" fill="#d72d79"></path></g><g aria-hidden="true" clip-path="none" transform="translate(10,10) scale(1 1)" opacity="1" data-z-index="0.1" class="highcharts-markers highcharts-series-0 highcharts-pie-series"></g></g><text aria-hidden="true" y="24" style="color: rgb(51, 51, 51); font-size: 18px; fill: rgb(51, 51, 51);" data-z-index="4" class="highcharts-title" text-anchor="middle" x="325"></text><text aria-hidden="true" y="24" style="color: rgb(102, 102, 102); fill: rgb(102, 102, 102);" data-z-index="4" class="highcharts-subtitle" text-anchor="middle" x="325"></text><text aria-hidden="true" y="397" style="color: rgb(102, 102, 102); fill: rgb(102, 102, 102);" data-z-index="4" class="highcharts-caption" text-anchor="start" x="10"></text><g aria-hidden="true" transform="translate(10,10) scale(1 1)" opacity="1" data-z-index="6" class="highcharts-data-labels highcharts-series-0 highcharts-pie-series"><path d="M 470.8429397384084 136.62280715351125 C 465.8429397384084 136.62280715351125 448.0734834865017 139.49446599668406 442.15033140253274 140.45168561107496 L 436.2271793185638 141.40890522546587" stroke-width="1" stroke="#005ea2" class="highcharts-data-label-connector highcharts-color-0" fill="none"></path><path d="M 272.46532616179735 309.1181564152746 C 277.46532616179735 309.1181564152746 281.886950043261 291.6696824920093 283.3608246704155 285.8535245175875 L 284.83469929757007 280.0373665431657" stroke-width="1" stroke="#d83933" class="highcharts-data-label-connector highcharts-color-1" fill="none"></path><path d="M 160.37475453699417 191.98589873047513 C 165.37475453699417 191.98589873047513 183.000765128186 188.33572741405794 188.87610199191658 187.11900364191885 L 194.75143885564717 185.90227986977976" stroke-width="1" stroke="#00bde3" class="highcharts-data-label-connector highcharts-color-2" fill="none"></path><path d="M 182.62465068292272 76.59999771118164 C 187.62465068292272 76.59999771118164 218.19657506152214 67.19095501935607 222.50533284810126 71.36643179890996 L 226.81409063468038 75.54190857846385" stroke-width="1" stroke="#fa9441" class="highcharts-data-label-connector highcharts-color-3" fill="none"></path><path d="M 201.1147407917327 53.7999984741211 C 206.1147407917327 53.7999984741211 279.4299128646677 30.977659991888828 281.01315116445994 36.76500450263562 L 282.5963894642522 42.55234901338241" stroke-width="1" stroke="#676cc8" class="highcharts-data-label-connector highcharts-color-4" fill="none"></path><path d="M 229.70155791277307 30.99999923706055 C 234.70155791277307 30.99999923706055 300.20781486492706 27.0140632046418 300.86622073147333 32.97782893737288 L 301.5246265980196 38.94159467010395" stroke-width="1" stroke="#04c585" class="highcharts-data-label-connector highcharts-color-5" fill="none"></path><path d="M 305.2004360128622 8.200000000000003 C 310.2004360128622 8.200000000000003 310.76582967626825 26.26651566269939 310.95429423073705 32.263555024893776 L 311.14275878520584 38.26059438708816" stroke-width="1" stroke="#d72d79" class="highcharts-data-label-connector highcharts-color-6" fill="none"></path><g transform="translate(476,127)" style="cursor: pointer;" data-z-index="1" class="highcharts-label highcharts-data-label highcharts-data-label-color-0"><text style="color: rgb(0, 0, 0); font-size: 11px; font-weight: bold; fill: rgb(0, 0, 0);" y="16" data-z-index="1" x="5"><tspan style="font-weight: bold;">White</tspan>: 44.9 %</text></g><g transform="translate(188,299)" style="cursor: pointer;" data-z-index="1" class="highcharts-label highcharts-data-label highcharts-data-label-color-1"><text style="color: rgb(0, 0, 0); font-size: 11px; font-weight: bold; fill: rgb(0, 0, 0);" y="16" data-z-index="1" x="5"><tspan style="font-weight: bold;">Black</tspan>: 18.1 %</text></g><g transform="translate(59,182)" style="cursor: pointer;" data-z-index="1" class="highcharts-label highcharts-data-label highcharts-data-label-color-2"><text style="color: rgb(0, 0, 0); font-size: 11px; font-weight: bold; fill: rgb(0, 0, 0);" y="16" data-z-index="1" x="5"><tspan style="font-weight: bold;">Hispanic</tspan>: 17.5 %</text></g><g transform="translate(98,67)" style="cursor: pointer;" data-z-index="1" class="highcharts-label highcharts-data-label highcharts-data-label-color-3"><text style="color: rgb(0, 0, 0); font-size: 11px; font-weight: bold; fill: rgb(0, 0, 0);" y="16" data-z-index="1" x="5"><tspan style="font-weight: bold;">Asian</tspan>: 13.5 %</text></g><g transform="translate(92,44)" style="cursor: pointer;" data-z-index="1" class="highcharts-label highcharts-data-label highcharts-data-label-color-4"><text style="color: rgb(0, 0, 0); font-size: 11px; font-weight: bold; fill: rgb(0, 0, 0);" y="16" data-z-index="1" x="5"><tspan style="font-weight: bold;">Multiracial*</tspan>: 3.5 %</text></g><g transform="translate(88,21)" style="cursor: pointer;" data-z-index="1" class="highcharts-label highcharts-data-label highcharts-data-label-color-5"><text style="color: rgb(0, 0, 0); font-size: 11px; font-weight: bold; fill: rgb(0, 0, 0);" y="16" data-z-index="1" x="5"><tspan style="font-weight: bold;">Native Americans</tspan>: 1.5 %</text></g><g transform="translate(222,-2)" style="cursor: pointer;" data-z-index="1" class="highcharts-label highcharts-data-label highcharts-data-label-color-6"><text style="color: rgb(0, 0, 0); font-size: 11px; font-weight: bold; fill: rgb(0, 0, 0);" y="16" data-z-index="1" x="5"><tspan style="font-weight: bold;">Others</tspan>: 1.0 %</text></g></g><g aria-hidden="true" transform="translate(44,344)" data-z-index="7" class="highcharts-legend highcharts-no-tooltip"><rect height="41" width="562" y="0" x="0" ry="0" rx="0" class="highcharts-legend-box" fill="none"></rect><g data-z-index="1"><g><g transform="translate(8,3)" data-z-index="1" class="highcharts-legend-item highcharts-pie-series highcharts-color-0"><text y="15" data-z-index="2" text-anchor="start" style="color: rgb(51, 51, 51); cursor: pointer; font-size: 12px; font-weight: bold; fill: rgb(51, 51, 51);" x="21">White</text><rect data-z-index="3" class="highcharts-point" ry="6" rx="6" fill="#005ea2" height="12" width="12" y="4" x="2"></rect></g><g transform="translate(149.51667022705078,3)" data-z-index="1" class="highcharts-legend-item highcharts-pie-series highcharts-color-1"><text data-z-index="2" text-anchor="start" style="color: rgb(51, 51, 51); cursor: pointer; font-size: 12px; font-weight: bold; fill: rgb(51, 51, 51);" y="15" x="21">Black</text><rect data-z-index="3" class="highcharts-point" ry="6" rx="6" fill="#d83933" height="12" width="12" y="4" x="2"></rect></g><g transform="translate(291.03334045410156,3)" data-z-index="1" class="highcharts-legend-item highcharts-pie-series highcharts-color-2"><text data-z-index="2" text-anchor="start" style="color: rgb(51, 51, 51); cursor: pointer; font-size: 12px; font-weight: bold; fill: rgb(51, 51, 51);" y="15" x="21">Hispanic</text><rect data-z-index="3" class="highcharts-point" ry="6" rx="6" fill="#00bde3" height="12" width="12" y="4" x="2"></rect></g><g transform="translate(432.55001068115234,3)" data-z-index="1" class="highcharts-legend-item highcharts-pie-series highcharts-color-3"><text data-z-index="2" text-anchor="start" style="color: rgb(51, 51, 51); cursor: pointer; font-size: 12px; font-weight: bold; fill: rgb(51, 51, 51);" y="15" x="21">Asian</text><rect data-z-index="3" class="highcharts-point" ry="6" rx="6" fill="#fa9441" height="12" width="12" y="4" x="2"></rect></g><g transform="translate(8,18)" data-z-index="1" class="highcharts-legend-item highcharts-pie-series highcharts-color-4"><text data-z-index="2" text-anchor="start" style="color: rgb(51, 51, 51); cursor: pointer; font-size: 12px; font-weight: bold; fill: rgb(51, 51, 51);" y="15" x="21">Multiracial*</text><rect data-z-index="3" class="highcharts-point" ry="6" rx="6" fill="#676cc8" height="12" width="12" y="4" x="2"></rect></g><g transform="translate(149.51667022705078,18)" data-z-index="1" class="highcharts-legend-item highcharts-pie-series highcharts-color-5"><text data-z-index="2" text-anchor="start" style="color: rgb(51, 51, 51); cursor: pointer; font-size: 12px; font-weight: bold; fill: rgb(51, 51, 51);" y="15" x="21">Native Americans</text><rect data-z-index="3" class="highcharts-point" ry="6" rx="6" fill="#04c585" height="12" width="12" y="4" x="2"></rect></g><g transform="translate(291.03334045410156,18)" data-z-index="1" class="highcharts-legend-item highcharts-pie-series highcharts-color-6"><text data-z-index="2" text-anchor="start" style="color: rgb(51, 51, 51); cursor: pointer; font-size: 12px; font-weight: bold; fill: rgb(51, 51, 51);" y="15" x="21">Others</text><rect data-z-index="3" class="highcharts-point" ry="6" rx="6" fill="#d72d79" height="12" width="12" y="4" x="2"></rect></g></g></g></g><text aria-hidden="false" aria-label="Chart credits: Highcharts.com" y="395" style="cursor: pointer; color: rgb(153, 153, 153); font-size: 9px; fill: rgb(153, 153, 153);" data-z-index="8" text-anchor="end" class="highcharts-credits" x="640">Highcharts.com</text></svg>