<svg aria-hidden="false" aria-label="Interactive chart" viewBox="0 0 650 400" height="400" width="650" xmlns="http://www.w3.org/2000/svg" style="font-family: Roboto; font-size: 12px;" class="highcharts-root" version="1.1" xmlns:xlink="http://www.w3.org/1999/xlink"><desc aria-hidden="true">Created with Highcharts 10.3.1</desc><defs aria-hidden="true"><clipPath id="highcharts-5fpk2sy-460-"><rect fill="none" height="316" width="609" y="0" x="0"></rect></clipPath><clipPath id="highcharts-5fpk2sy-471-"><rect fill="none" height="316" width="609" y="0" x="0"></rect></clipPath></defs><rect aria-hidden="true" ry="0" rx="0" height="400" width="650" y="0" x="0" class="highcharts-background" fill="#ffffff"></rect><rect aria-hidden="true" height="316" width="609" y="10" x="31" class="highcharts-plot-background" fill="none"></rect><g aria-hidden="true" data-z-index="0" class="highcharts-pane-group"></g><g aria-hidden="true" data-z-index="1" class="highcharts-grid highcharts-xaxis-grid"><path opacity="1" d="M 91.5 10 L 91.5 326" class="highcharts-grid-line" data-z-index="1" stroke-dasharray="none" fill="none"></path><path opacity="1" d="M 152.5 10 L 152.5 326" class="highcharts-grid-line" data-z-index="1" stroke-dasharray="none" fill="none"></path><path opacity="1" d="M 213.5 10 L 213.5 326" class="highcharts-grid-line" data-z-index="1" stroke-dasharray="none" fill="none"></path><path opacity="1" d="M 274.5 10 L 274.5 326" class="highcharts-grid-line" data-z-index="1" stroke-dasharray="none" fill="none"></path><path opacity="1" d="M 335.5 10 L 335.5 326" class="highcharts-grid-line" data-z-index="1" stroke-dasharray="none" fill="none"></path><path opacity="1" d="M 395.5 10 L 395.5 326" class="highcharts-grid-line" data-z-index="1" stroke-dasharray="none" fill="none"></path><path opacity="1" d="M 456.5 10 L 456.5 326" class="highcharts-grid-line" data-z-index="1" stroke-dasharray="none" fill="none"></path><path opacity="1" d="M 517.5 10 L 517.5 326" class="highcharts-grid-line" data-z-index="1" stroke-dasharray="none" fill="none"></path><path opacity="1" d="M 578.5 10 L 578.5 326" class="highcharts-grid-line" data-z-index="1" stroke-dasharray="none" fill="none"></path><path opacity="1" d="M 639.5 10 L 639.5 326" class="highcharts-grid-line" data-z-index="1" stroke-dasharray="none" fill="none"></path><path opacity="1" d="M 30.5 10 L 30.5 326" class="highcharts-grid-line" data-z-index="1" stroke-dasharray="none" fill="none"></path></g><g aria-hidden="true" data-z-index="1" class="highcharts-grid highcharts-yaxis-grid"><path opacity="1" d="M 31 326.5 L 640 326.5" class="highcharts-grid-line" data-z-index="1" stroke-dasharray="none" stroke-width="1" stroke="#e6e6e6" fill="none"></path><path opacity="1" d="M 31 263.5 L 640 263.5" class="highcharts-grid-line" data-z-index="1" stroke-dasharray="none" stroke-width="1" stroke="#e6e6e6" fill="none"></path><path opacity="1" d="M 31 200.5 L 640 200.5" class="highcharts-grid-line" data-z-index="1" stroke-dasharray="none" stroke-width="1" stroke="#e6e6e6" fill="none"></path><path opacity="1" d="M 31 136.5 L 640 136.5" class="highcharts-grid-line" data-z-index="1" stroke-dasharray="none" stroke-width="1" stroke="#e6e6e6" fill="none"></path><path opacity="1" d="M 31 73.5 L 640 73.5" class="highcharts-grid-line" data-z-index="1" stroke-dasharray="none" stroke-width="1" stroke="#e6e6e6" fill="none"></path><path opacity="1" d="M 31 9.5 L 640 9.5" class="highcharts-grid-line" data-z-index="1" stroke-dasharray="none" stroke-width="1" stroke="#e6e6e6" fill="none"></path></g><rect aria-hidden="true" height="316" width="609" y="10" x="31" data-z-index="1" class="highcharts-plot-border" fill="none"></rect><g aria-hidden="true" data-z-index="2" class="highcharts-axis highcharts-xaxis"><path d="M 31 326.5 L 640 326.5" data-z-index="7" stroke-width="1" stroke="#ccd6eb" class="highcharts-axis-line" fill="none"></path></g><g aria-hidden="true" data-z-index="2" class="highcharts-axis highcharts-yaxis"><path d="M 31 10 L 31 326" data-z-index="7" class="highcharts-axis-line" fill="none"></path></g><g aria-hidden="false" data-z-index="3" class="highcharts-series-group"><g aria-hidden="true" clip-path="url(#highcharts-5fpk2sy-471-)" transform="translate(31,10) scale(1 1)" opacity="1" data-z-index="0.1" class="highcharts-series highcharts-series-0 highcharts-spline-series"><path stroke-linecap="round" stroke-linejoin="round" stroke-width="2" stroke="#005ea2" data-z-index="1" class="highcharts-graph" d="M 30.45 145.36 C 30.45 145.36 66.98999999999998 159.26399999999998 91.35 170.64 C 115.71 182.016 127.89000000000001 190.864 152.25 202.24 C 176.60999999999999 213.616 188.79000000000002 219.936 213.15 227.51999999999998 C 237.51000000000005 235.10399999999998 249.69 240.16 274.05 240.16 C 298.41 240.16 310.59 37.920000000000016 334.95 37.920000000000016 C 359.31 37.920000000000016 371.49000000000007 87.21600000000007 395.85 120.08000000000001 C 420.21000000000004 152.94400000000007 432.39 179.48800000000003 456.75 202.24 C 481.11 224.99200000000002 493.28999999999996 224.992 517.65 233.84 C 542.01 242.68800000000002 578.55 246.48000000000002 578.55 246.48000000000002" fill="none"></path></g><g aria-hidden="false" clip-path="none" transform="translate(31,10) scale(1 1)" opacity="1" data-z-index="0.1" class="highcharts-markers highcharts-series-0 highcharts-spline-series"><path aria-label="2015, 5.7. Unemployment rate." role="img" style="outline: none;" tabindex="-1" class="highcharts-point" opacity="1" d="M 30 149 A 4 4 0 1 1 30.003999999333335 148.99999800000018 Z" fill="#005ea2"></path><path aria-label="2016, 5.3. Unemployment rate." role="img" style="outline: none;" tabindex="-1" class="highcharts-point" opacity="1" d="M 91 175 A 4 4 0 1 1 91.00399999933333 174.99999800000018 Z" fill="#005ea2"></path><path aria-label="2017, 4.8. Unemployment rate." role="img" style="outline: none;" tabindex="-1" class="highcharts-point" opacity="1" d="M 152 206 A 4 4 0 1 1 152.00399999933333 205.99999800000018 Z" fill="#005ea2"></path><path aria-label="2018, 4.4. Unemployment rate." role="img" style="outline: none;" tabindex="-1" class="highcharts-point" opacity="1" d="M 213 232 A 4 4 0 1 1 213.00399999933333 231.99999800000018 Z" fill="#005ea2"></path><path aria-label="2019, 4.2. Unemployment rate." role="img" style="outline: none;" tabindex="-1" class="highcharts-point" opacity="1" d="M 274 244 A 4 4 0 1 1 274.00399999933336 243.99999800000018 Z" fill="#005ea2"></path><path aria-label="2020, 7.4. Unemployment rate." role="img" style="outline: none;" tabindex="-1" class="highcharts-point" opacity="1" d="M 334 42 A 4 4 0 1 1 334.00399999933336 41.99999800000017 Z" fill="#005ea2"></path><path aria-label="2021, 6.1. Unemployment rate." role="img" style="outline: none;" tabindex="-1" class="highcharts-point" opacity="1" d="M 395 124 A 4 4 0 1 1 395.00399999933336 123.99999800000016 Z" fill="#005ea2"></path><path aria-label="2022, 4.8. Unemployment rate." role="img" style="outline: none;" tabindex="-1" class="highcharts-point" opacity="1" d="M 456 206 A 4 4 0 1 1 456.00399999933336 205.99999800000018 Z" fill="#005ea2"></path><path aria-label="2023, 4.3. Unemployment rate." role="img" style="outline: none;" tabindex="-1" class="highcharts-point" opacity="1" d="M 517 238 A 4 4 0 1 1 517.0039999993334 237.99999800000018 Z" fill="#005ea2"></path><path aria-label="2024, 4.1. Unemployment rate." role="img" style="outline: none;" tabindex="-1" class="highcharts-point" opacity="1" d="M 578 250 A 4 4 0 1 1 578.0039999993334 249.99999800000018 Z" fill="#005ea2"></path></g></g><text aria-hidden="true" y="24" style="color: rgb(51, 51, 51); font-size: 18px; fill: rgb(51, 51, 51);" data-z-index="4" class="highcharts-title" text-anchor="middle" x="325"></text><text aria-hidden="true" y="24" style="color: rgb(102, 102, 102); fill: rgb(102, 102, 102);" data-z-index="4" class="highcharts-subtitle" text-anchor="middle" x="325"></text><text aria-hidden="true" y="397" style="color: rgb(102, 102, 102); fill: rgb(102, 102, 102);" data-z-index="4" class="highcharts-caption" text-anchor="start" x="10"></text><g aria-hidden="true" transform="translate(31,10) scale(1 1)" opacity="1" data-z-index="6" class="highcharts-data-labels highcharts-series-0 highcharts-spline-series"><g transform="translate(17,122)" style="cursor: pointer;" data-z-index="1" class="highcharts-label highcharts-data-label highcharts-data-label-color-undefined"><text style="color: black; font-size: 11px; font-weight: bold; fill: black;" y="16" data-z-index="1" x="5">5.7</text></g><g transform="translate(78,148)" style="cursor: pointer;" data-z-index="1" class="highcharts-label highcharts-data-label highcharts-data-label-color-undefined"><text style="color: black; font-size: 11px; font-weight: bold; fill: black;" y="16" data-z-index="1" x="5">5.3</text></g><g transform="translate(139,179)" style="cursor: pointer;" data-z-index="1" class="highcharts-label highcharts-data-label highcharts-data-label-color-undefined"><text style="color: black; font-size: 11px; font-weight: bold; fill: black;" y="16" data-z-index="1" x="5">4.8</text></g><g transform="translate(200,205)" style="cursor: pointer;" data-z-index="1" class="highcharts-label highcharts-data-label highcharts-data-label-color-undefined"><text style="color: black; font-size: 11px; font-weight: bold; fill: black;" y="16" data-z-index="1" x="5">4.4</text></g><g transform="translate(261,217)" style="cursor: pointer;" data-z-index="1" class="highcharts-label highcharts-data-label highcharts-data-label-color-undefined"><text style="color: black; font-size: 11px; font-weight: bold; fill: black;" y="16" data-z-index="1" x="5">4.2</text></g><g transform="translate(322,15)" style="cursor: pointer;" data-z-index="1" class="highcharts-label highcharts-data-label highcharts-data-label-color-undefined"><text style="color: black; font-size: 11px; font-weight: bold; fill: black;" y="16" data-z-index="1" x="5">7.4</text></g><g transform="translate(383,97)" style="cursor: pointer;" data-z-index="1" class="highcharts-label highcharts-data-label highcharts-data-label-color-undefined"><text style="color: black; font-size: 11px; font-weight: bold; fill: black;" y="16" data-z-index="1" x="5">6.1</text></g><g transform="translate(444,179)" style="cursor: pointer;" data-z-index="1" class="highcharts-label highcharts-data-label highcharts-data-label-color-undefined"><text style="color: black; font-size: 11px; font-weight: bold; fill: black;" y="16" data-z-index="1" x="5">4.8</text></g><g transform="translate(504,211)" style="cursor: pointer;" data-z-index="1" class="highcharts-label highcharts-data-label highcharts-data-label-color-undefined"><text style="color: black; font-size: 11px; font-weight: bold; fill: black;" y="16" data-z-index="1" x="5">4.3</text></g><g transform="translate(565,223)" style="cursor: pointer;" data-z-index="1" class="highcharts-label highcharts-data-label highcharts-data-label-color-undefined"><text style="color: black; font-size: 11px; font-weight: bold; fill: black;" y="16" data-z-index="1" x="5">4.1</text></g></g><g aria-hidden="true" transform="translate(251,359)" data-z-index="7" class="highcharts-legend highcharts-no-tooltip"><rect height="26" width="148" y="0" x="0" ry="0" rx="0" class="highcharts-legend-box" fill="none"></rect><g data-z-index="1"><g><g transform="translate(8,3)" data-z-index="1" class="highcharts-legend-item highcharts-spline-series highcharts-color-undefined highcharts-series-0"><path stroke-width="2" stroke="#005ea2" class="highcharts-graph" d="M 0 11 L 16 11" fill="none"></path><path opacity="1" class="highcharts-point" d="M 8 15 A 4 4 0 1 1 8.003999999333336 14.999998000000167 Z" fill="#005ea2"></path><text y="15" data-z-index="2" text-anchor="start" style="color: rgb(51, 51, 51); cursor: pointer; font-size: 12px; font-weight: bold; fill: rgb(51, 51, 51);" x="21">Unemployment rate</text></g></g></g></g><g aria-hidden="true" data-z-index="7" class="highcharts-axis-labels highcharts-xaxis-labels"><text opacity="1" y="345" transform="translate(0,0)" text-anchor="middle" style="color: rgb(102, 102, 102); cursor: default; font-size: 11px; fill: rgb(102, 102, 102);" x="61.45">2015</text><text opacity="1" y="345" transform="translate(0,0)" text-anchor="middle" style="color: rgb(102, 102, 102); cursor: default; font-size: 11px; fill: rgb(102, 102, 102);" x="122.35000000000001">2016</text><text opacity="1" y="345" transform="translate(0,0)" text-anchor="middle" style="color: rgb(102, 102, 102); cursor: default; font-size: 11px; fill: rgb(102, 102, 102);" x="183.25">2017</text><text opacity="1" y="345" transform="translate(0,0)" text-anchor="middle" style="color: rgb(102, 102, 102); cursor: default; font-size: 11px; fill: rgb(102, 102, 102);" x="244.15000000000003">2018</text><text opacity="1" y="345" transform="translate(0,0)" text-anchor="middle" style="color: rgb(102, 102, 102); cursor: default; font-size: 11px; fill: rgb(102, 102, 102);" x="305.05">2019</text><text opacity="1" y="345" transform="translate(0,0)" text-anchor="middle" style="color: rgb(102, 102, 102); cursor: default; font-size: 11px; fill: rgb(102, 102, 102);" x="365.95">2020</text><text opacity="1" y="345" transform="translate(0,0)" text-anchor="middle" style="color: rgb(102, 102, 102); cursor: default; font-size: 11px; fill: rgb(102, 102, 102);" x="426.85">2021</text><text opacity="1" y="345" transform="translate(0,0)" text-anchor="middle" style="color: rgb(102, 102, 102); cursor: default; font-size: 11px; fill: rgb(102, 102, 102);" x="487.75000000000006">2022</text><text opacity="1" y="345" transform="translate(0,0)" text-anchor="middle" style="color: rgb(102, 102, 102); cursor: default; font-size: 11px; fill: rgb(102, 102, 102);" x="548.65">2023</text><text opacity="1" y="345" transform="translate(0,0)" text-anchor="middle" style="color: rgb(102, 102, 102); cursor: default; font-size: 11px; fill: rgb(102, 102, 102);" x="609.55">2024</text></g><g aria-hidden="true" data-z-index="7" class="highcharts-axis-labels highcharts-yaxis-labels"><text opacity="1" y="331" transform="translate(0,0)" text-anchor="end" style="color: rgb(102, 102, 102); cursor: default; font-size: 11px; fill: rgb(102, 102, 102);" x="16">3</text><text opacity="1" y="267" transform="translate(0,0)" text-anchor="end" style="color: rgb(102, 102, 102); cursor: default; font-size: 11px; fill: rgb(102, 102, 102);" x="16">4</text><text opacity="1" y="204" transform="translate(0,0)" text-anchor="end" style="color: rgb(102, 102, 102); cursor: default; font-size: 11px; fill: rgb(102, 102, 102);" x="16">5</text><text opacity="1" y="141" transform="translate(0,0)" text-anchor="end" style="color: rgb(102, 102, 102); cursor: default; font-size: 11px; fill: rgb(102, 102, 102);" x="16">6</text><text opacity="1" y="78" transform="translate(0,0)" text-anchor="end" style="color: rgb(102, 102, 102); cursor: default; font-size: 11px; fill: rgb(102, 102, 102);" x="16">7</text><text opacity="1" y="15" transform="translate(0,0)" text-anchor="end" style="color: rgb(102, 102, 102); cursor: default; font-size: 11px; fill: rgb(102, 102, 102);" x="16">8</text></g><text aria-hidden="false" aria-label="Chart credits: Highcharts.com" y="395" style="cursor: pointer; color: rgb(153, 153, 153); font-size: 9px; fill: rgb(153, 153, 153);" data-z-index="8" text-anchor="end" class="highcharts-credits" x="640">Highcharts.com</text></svg>